<svg width="494" height="310" viewBox="0 0 494 310" fill="none" xmlns="http://www.w3.org/2000/svg">
<rect width="494" height="310" rx="18" fill="#151A0E"/>
<path d="M0 134C0 122.954 8.9543 114 20 114H474C485.046 114 494 122.954 494 134V310H0V134Z" fill="#FAFFF3"/>
<circle cx="448" cy="43" r="23" fill="#FAFFF3"/>
<path d="M134.98 174V148.8H145.42C147.94 148.8 150.112 149.256 151.936 150.168C153.76 151.08 155.164 152.436 156.148 154.236C157.156 156.012 157.66 158.22 157.66 160.86V161.58C157.66 164.268 157.156 166.536 156.148 168.384C155.14 170.232 153.688 171.636 151.792 172.596C149.896 173.532 147.652 174 145.06 174H134.98ZM142.972 167.52H144.88C145.744 167.52 146.512 167.34 147.184 166.98C147.88 166.596 148.432 165.972 148.84 165.108C149.248 164.244 149.452 163.068 149.452 161.58V160.86C149.452 159.468 149.26 158.364 148.876 157.548C148.516 156.732 148 156.156 147.328 155.82C146.68 155.46 145.924 155.28 145.06 155.28H142.972V167.52ZM169.893 174.504C167.901 174.504 166.125 174.144 164.565 173.424C163.029 172.704 161.817 171.624 160.929 170.184C160.065 168.744 159.633 166.932 159.633 164.748V164.028C159.633 161.892 160.053 160.116 160.893 158.7C161.733 157.284 162.897 156.216 164.385 155.496C165.897 154.776 167.613 154.416 169.533 154.416C172.845 154.416 175.317 155.244 176.949 156.9C178.581 158.532 179.397 160.932 179.397 164.1V166.188H166.473C166.521 166.932 166.689 167.556 166.977 168.06C167.265 168.54 167.649 168.9 168.129 169.14C168.633 169.356 169.221 169.464 169.893 169.464C170.733 169.464 171.381 169.332 171.837 169.068C172.317 168.78 172.641 168.42 172.809 167.988H179.145C178.761 170.196 177.777 171.84 176.193 172.92C174.633 173.976 172.533 174.504 169.893 174.504ZM169.713 159.456C169.089 159.456 168.537 159.564 168.057 159.78C167.601 159.996 167.241 160.308 166.977 160.716C166.713 161.124 166.557 161.64 166.509 162.264H172.773C172.749 161.616 172.605 161.088 172.341 160.68C172.077 160.248 171.717 159.936 171.261 159.744C170.829 159.552 170.313 159.456 169.713 159.456ZM190.295 174.504C188.615 174.504 187.199 174.324 186.047 173.964C184.895 173.604 183.959 173.136 183.239 172.56C182.519 171.96 181.979 171.276 181.619 170.508C181.259 169.716 181.031 168.9 180.935 168.06H187.667C187.763 168.468 187.979 168.816 188.315 169.104C188.675 169.392 189.335 169.536 190.295 169.536C191.279 169.536 191.963 169.416 192.347 169.176C192.731 168.936 192.923 168.612 192.923 168.204C192.923 167.988 192.815 167.796 192.599 167.628C192.407 167.46 192.023 167.292 191.447 167.124C190.895 166.956 190.067 166.788 188.963 166.62C188.003 166.452 187.067 166.248 186.155 166.008C185.267 165.744 184.463 165.396 183.743 164.964C183.047 164.532 182.495 163.968 182.087 163.272C181.679 162.576 181.475 161.688 181.475 160.608C181.475 159.36 181.823 158.28 182.519 157.368C183.215 156.432 184.223 155.712 185.543 155.208C186.863 154.68 188.447 154.416 190.295 154.416C192.383 154.416 194.039 154.74 195.263 155.388C196.487 156.012 197.375 156.816 197.927 157.8C198.503 158.784 198.839 159.804 198.935 160.86H192.203C192.107 160.356 191.879 159.984 191.519 159.744C191.183 159.504 190.739 159.384 190.187 159.384C189.443 159.384 188.927 159.504 188.639 159.744C188.351 159.96 188.207 160.224 188.207 160.536C188.207 160.92 188.459 161.232 188.963 161.472C189.467 161.688 190.367 161.88 191.663 162.048C192.599 162.168 193.523 162.36 194.435 162.624C195.371 162.888 196.235 163.26 197.027 163.74C197.819 164.196 198.455 164.796 198.935 165.54C199.415 166.26 199.655 167.136 199.655 168.168C199.655 169.464 199.283 170.592 198.539 171.552C197.819 172.512 196.763 173.244 195.371 173.748C194.003 174.252 192.311 174.504 190.295 174.504ZM202.159 174V154.92H208.891V174H202.159ZM205.543 153.12C204.319 153.12 203.383 152.856 202.735 152.328C202.087 151.8 201.763 151.104 201.763 150.24C201.763 149.376 202.087 148.68 202.735 148.152C203.383 147.624 204.319 147.36 205.543 147.36C206.791 147.36 207.727 147.624 208.351 148.152C208.999 148.68 209.323 149.376 209.323 150.24C209.323 151.104 208.999 151.8 208.351 152.328C207.727 152.856 206.791 153.12 205.543 153.12ZM221.243 181.704C219.035 181.704 217.283 181.428 215.987 180.876C214.715 180.348 213.791 179.604 213.215 178.644C212.663 177.684 212.339 176.616 212.243 175.44H219.011C219.131 175.8 219.347 176.1 219.659 176.34C219.995 176.604 220.583 176.736 221.423 176.736C222.479 176.736 223.295 176.46 223.871 175.908C224.447 175.38 224.735 174.504 224.735 173.28V171.552C224.135 172.392 223.367 173.04 222.431 173.496C221.495 173.928 220.475 174.144 219.371 174.144C217.859 174.144 216.515 173.796 215.339 173.1C214.163 172.38 213.227 171.312 212.531 169.896C211.859 168.48 211.523 166.692 211.523 164.532V163.848C211.523 161.832 211.835 160.128 212.459 158.736C213.107 157.32 214.031 156.252 215.231 155.532C216.431 154.788 217.823 154.416 219.407 154.416C221.015 154.416 222.275 154.692 223.187 155.244C224.123 155.796 224.807 156.48 225.239 157.296V154.92H231.503V172.56C231.503 175.632 230.687 177.924 229.055 179.436C227.423 180.948 224.819 181.704 221.243 181.704ZM221.459 168.636C222.059 168.636 222.599 168.504 223.079 168.24C223.583 167.952 223.979 167.532 224.267 166.98C224.579 166.404 224.735 165.708 224.735 164.892V163.452C224.735 162.66 224.579 162 224.267 161.472C223.979 160.944 223.583 160.56 223.079 160.32C222.599 160.056 222.059 159.924 221.459 159.924C220.595 159.924 219.875 160.236 219.299 160.86C218.723 161.484 218.435 162.48 218.435 163.848V164.568C218.435 165.96 218.735 166.992 219.335 167.664C219.959 168.312 220.667 168.636 221.459 168.636ZM234.532 174V154.92H240.796V157.296C241.252 156.504 241.96 155.832 242.92 155.28C243.88 154.704 245.188 154.416 246.844 154.416C249.004 154.416 250.636 155.016 251.74 156.216C252.868 157.392 253.432 159.12 253.432 161.4V174H246.7V162.84C246.7 161.904 246.496 161.184 246.088 160.68C245.704 160.176 245.068 159.924 244.18 159.924C243.508 159.924 242.956 160.056 242.524 160.32C242.092 160.584 241.78 160.932 241.588 161.364C241.396 161.796 241.3 162.288 241.3 162.84V174H234.532ZM273.644 174.504C271.724 174.504 270.056 174.144 268.64 173.424C267.248 172.68 266.168 171.576 265.4 170.112C264.656 168.648 264.284 166.824 264.284 164.64H271.376C271.4 165.768 271.556 166.608 271.844 167.16C272.132 167.688 272.636 167.952 273.356 167.952C273.836 167.952 274.22 167.844 274.508 167.628C274.82 167.412 275.036 167.064 275.156 166.584C275.3 166.08 275.372 165.432 275.372 164.64V148.8H283.328V164.64C283.328 167.112 282.908 169.068 282.068 170.508C281.252 171.924 280.112 172.944 278.648 173.568C277.208 174.192 275.54 174.504 273.644 174.504ZM286.851 174V154.92H293.583V174H286.851ZM290.235 153.12C289.011 153.12 288.075 152.856 287.427 152.328C286.779 151.8 286.455 151.104 286.455 150.24C286.455 149.376 286.779 148.68 287.427 148.152C288.075 147.624 289.011 147.36 290.235 147.36C291.483 147.36 292.419 147.624 293.043 148.152C293.691 148.68 294.015 149.376 294.015 150.24C294.015 151.104 293.691 151.8 293.043 152.328C292.419 152.856 291.483 153.12 290.235 153.12ZM305.935 181.704C303.727 181.704 301.975 181.428 300.679 180.876C299.407 180.348 298.483 179.604 297.907 178.644C297.355 177.684 297.031 176.616 296.935 175.44H303.703C303.823 175.8 304.039 176.1 304.351 176.34C304.687 176.604 305.275 176.736 306.115 176.736C307.171 176.736 307.987 176.46 308.563 175.908C309.139 175.38 309.427 174.504 309.427 173.28V171.552C308.827 172.392 308.059 173.04 307.123 173.496C306.187 173.928 305.167 174.144 304.063 174.144C302.551 174.144 301.207 173.796 300.031 173.1C298.855 172.38 297.919 171.312 297.223 169.896C296.551 168.48 296.215 166.692 296.215 164.532V163.848C296.215 161.832 296.527 160.128 297.151 158.736C297.799 157.32 298.723 156.252 299.923 155.532C301.123 154.788 302.515 154.416 304.099 154.416C305.707 154.416 306.967 154.692 307.879 155.244C308.815 155.796 309.499 156.48 309.931 157.296V154.92H316.195V172.56C316.195 175.632 315.379 177.924 313.747 179.436C312.115 180.948 309.511 181.704 305.935 181.704ZM306.151 168.636C306.751 168.636 307.291 168.504 307.771 168.24C308.275 167.952 308.671 167.532 308.959 166.98C309.271 166.404 309.427 165.708 309.427 164.892V163.452C309.427 162.66 309.271 162 308.959 161.472C308.671 160.944 308.275 160.56 307.771 160.32C307.291 160.056 306.751 159.924 306.151 159.924C305.287 159.924 304.567 160.236 303.991 160.86C303.415 161.484 303.127 162.48 303.127 163.848V164.568C303.127 165.96 303.427 166.992 304.027 167.664C304.651 168.312 305.359 168.636 306.151 168.636ZM328.259 181.704C326.051 181.704 324.299 181.428 323.003 180.876C321.731 180.348 320.807 179.604 320.231 178.644C319.679 177.684 319.355 176.616 319.259 175.44H326.027C326.147 175.8 326.363 176.1 326.675 176.34C327.011 176.604 327.599 176.736 328.439 176.736C329.495 176.736 330.311 176.46 330.887 175.908C331.463 175.38 331.751 174.504 331.751 173.28V171.552C331.151 172.392 330.383 173.04 329.447 173.496C328.511 173.928 327.491 174.144 326.387 174.144C324.875 174.144 323.531 173.796 322.355 173.1C321.179 172.38 320.243 171.312 319.547 169.896C318.875 168.48 318.539 166.692 318.539 164.532V163.848C318.539 161.832 318.851 160.128 319.475 158.736C320.123 157.32 321.047 156.252 322.247 155.532C323.447 154.788 324.839 154.416 326.423 154.416C328.031 154.416 329.291 154.692 330.203 155.244C331.139 155.796 331.823 156.48 332.255 157.296V154.92H338.519V172.56C338.519 175.632 337.703 177.924 336.071 179.436C334.439 180.948 331.835 181.704 328.259 181.704ZM328.475 168.636C329.075 168.636 329.615 168.504 330.095 168.24C330.599 167.952 330.995 167.532 331.283 166.98C331.595 166.404 331.751 165.708 331.751 164.892V163.452C331.751 162.66 331.595 162 331.283 161.472C330.995 160.944 330.599 160.56 330.095 160.32C329.615 160.056 329.075 159.924 328.475 159.924C327.611 159.924 326.891 160.236 326.315 160.86C325.739 161.484 325.451 162.48 325.451 163.848V164.568C325.451 165.96 325.751 166.992 326.351 167.664C326.975 168.312 327.683 168.636 328.475 168.636ZM347.307 174.504C345.939 174.504 344.775 174.24 343.815 173.712C342.855 173.184 342.123 172.452 341.619 171.516C341.115 170.58 340.863 169.548 340.863 168.42C340.863 166.524 341.439 165.048 342.591 163.992C343.767 162.936 345.579 162.408 348.027 162.408H352.815V161.76C352.815 160.872 352.611 160.26 352.203 159.924C351.795 159.564 351.243 159.384 350.547 159.384C349.875 159.384 349.371 159.492 349.035 159.708C348.723 159.924 348.543 160.248 348.495 160.68H341.943C342.015 159.48 342.375 158.412 343.023 157.476C343.695 156.516 344.667 155.772 345.939 155.244C347.235 154.692 348.831 154.416 350.727 154.416C352.479 154.416 354.015 154.68 355.335 155.208C356.679 155.712 357.723 156.54 358.467 157.692C359.211 158.82 359.583 160.356 359.583 162.3V169.14C359.583 170.148 359.607 171.036 359.655 171.804C359.703 172.548 359.787 173.28 359.907 174H353.463C353.391 173.664 353.331 173.34 353.283 173.028C353.235 172.716 353.211 172.308 353.211 171.804C352.707 172.548 352.011 173.184 351.123 173.712C350.235 174.24 348.963 174.504 347.307 174.504ZM349.755 169.716C350.379 169.716 350.919 169.608 351.375 169.392C351.831 169.152 352.179 168.816 352.419 168.384C352.683 167.928 352.815 167.4 352.815 166.8V166.224H349.647C349.023 166.224 348.543 166.38 348.207 166.692C347.895 167.004 347.739 167.4 347.739 167.88C347.739 168.456 347.895 168.912 348.207 169.248C348.543 169.56 349.059 169.716 349.755 169.716Z" fill="#293012"/>
<path d="M26.92 52.2V37.8H30.12V39.176H28.552V50.824H30.12V52.2H26.92ZM35.2381 49V37.8H37.2221L40.7901 44.44L44.3581 37.8H46.2781V49H44.3581V41.16L41.3981 46.68H40.1181L37.1581 41.16V49H35.2381ZM52.92 49.176C51.992 49.176 51.1867 49.0053 50.504 48.664C49.8213 48.3227 49.2933 47.8107 48.92 47.128C48.5467 46.4347 48.36 45.5653 48.36 44.52V37.8H50.28V44.408C50.28 45.464 50.504 46.2427 50.952 46.744C51.4 47.2347 52.056 47.48 52.92 47.48C53.7947 47.48 54.4507 47.2347 54.888 46.744C55.336 46.2427 55.56 45.4693 55.56 44.424V37.8H57.48V44.52C57.48 45.5653 57.2933 46.4347 56.92 47.128C56.5467 47.8107 56.0187 48.3227 55.336 48.664C54.6533 49.0053 53.848 49.176 52.92 49.176ZM59.5675 49V37.8H61.4875V47.336H66.9275V49H59.5675ZM69.255 49V39.464H65.495V37.8H74.935V39.464H71.175V49H69.255ZM76.2131 49V37.8H78.1331V49H76.2131ZM80.5381 49V37.8H84.1381C85.2688 37.8 86.2341 38.0027 87.0341 38.408C87.8341 38.8027 88.4421 39.4 88.8581 40.2C89.2848 40.9893 89.4981 41.976 89.4981 43.16V43.48C89.4981 44.6747 89.2795 45.6827 88.8421 46.504C88.4048 47.3253 87.7701 47.9493 86.9381 48.376C86.1168 48.792 85.1301 49 83.9781 49H80.5381ZM82.4581 47.336H83.8181C84.5541 47.336 85.1941 47.2133 85.7381 46.968C86.2928 46.712 86.7195 46.3013 87.0181 45.736C87.3275 45.1707 87.4821 44.4187 87.4821 43.48V43.16C87.4821 42.2853 87.3275 41.576 87.0181 41.032C86.7088 40.488 86.2875 40.0933 85.7541 39.848C85.2315 39.592 84.6395 39.464 83.9781 39.464H82.4581V47.336ZM91.3394 49V37.8H93.2594V49H91.3394ZM99.4244 49.176C98.4644 49.176 97.6697 49.0373 97.0404 48.76C96.411 48.4827 95.931 48.104 95.6004 47.624C95.2804 47.1333 95.0884 46.5787 95.0244 45.96H96.9444C97.0297 46.3973 97.2484 46.76 97.6004 47.048C97.9524 47.336 98.5604 47.48 99.4244 47.48C100.32 47.48 100.955 47.336 101.328 47.048C101.712 46.7493 101.904 46.3867 101.904 45.96C101.904 45.608 101.798 45.32 101.584 45.096C101.371 44.872 101.04 44.68 100.592 44.52C100.155 44.3493 99.595 44.1947 98.9124 44.056C98.1444 43.8853 97.4937 43.672 96.9604 43.416C96.427 43.1493 96.0217 42.7973 95.7444 42.36C95.4777 41.9227 95.3444 41.3627 95.3444 40.68C95.3444 40.1147 95.499 39.6027 95.8084 39.144C96.1177 38.6853 96.571 38.3173 97.1684 38.04C97.7764 37.7627 98.5284 37.624 99.4244 37.624C100.299 37.624 101.024 37.7573 101.6 38.024C102.187 38.28 102.635 38.6373 102.944 39.096C103.264 39.5547 103.451 40.0827 103.504 40.68H101.584C101.499 40.2747 101.28 39.9493 100.928 39.704C100.587 39.448 100.086 39.32 99.4244 39.32C98.6564 39.32 98.1017 39.4533 97.7604 39.72C97.4297 39.9867 97.2644 40.3067 97.2644 40.68C97.2644 41.192 97.4777 41.576 97.9044 41.832C98.331 42.088 98.987 42.3067 99.8724 42.488C100.534 42.6267 101.11 42.792 101.6 42.984C102.091 43.1653 102.502 43.3893 102.832 43.656C103.163 43.912 103.408 44.232 103.568 44.616C103.739 44.9893 103.824 45.4373 103.824 45.96C103.824 46.5787 103.659 47.1333 103.328 47.624C103.008 48.104 102.523 48.4827 101.872 48.76C101.222 49.0373 100.406 49.176 99.4244 49.176ZM109.751 49.176C108.833 49.176 108.007 48.984 107.271 48.6C106.535 48.2053 105.948 47.592 105.511 46.76C105.084 45.9173 104.871 44.824 104.871 43.48V43.16C104.871 42.1893 104.999 41.3573 105.255 40.664C105.511 39.96 105.857 39.384 106.295 38.936C106.743 38.488 107.26 38.1573 107.847 37.944C108.444 37.7307 109.079 37.624 109.751 37.624C110.369 37.624 110.945 37.704 111.479 37.864C112.012 38.0133 112.481 38.2427 112.887 38.552C113.292 38.8613 113.617 39.2453 113.863 39.704C114.108 40.1627 114.257 40.7013 114.311 41.32H112.295C112.156 40.6267 111.857 40.12 111.399 39.8C110.951 39.48 110.401 39.32 109.751 39.32C109.281 39.32 108.828 39.4427 108.391 39.688C107.953 39.9227 107.591 40.3173 107.303 40.872C107.025 41.4267 106.887 42.1893 106.887 43.16V43.48C106.887 44.248 106.972 44.8933 107.143 45.416C107.313 45.928 107.537 46.3333 107.815 46.632C108.103 46.9307 108.412 47.1493 108.743 47.288C109.084 47.416 109.42 47.48 109.751 47.48C110.519 47.48 111.111 47.304 111.527 46.952C111.953 46.5893 112.209 46.0987 112.295 45.48H114.311C114.247 46.1413 114.087 46.7067 113.831 47.176C113.585 47.6453 113.255 48.0293 112.839 48.328C112.433 48.616 111.969 48.8293 111.447 48.968C110.924 49.1067 110.359 49.176 109.751 49.176ZM115.997 49V37.8H117.917V49H115.997ZM120.322 49V37.8H124.403C125.405 37.8 126.232 37.9493 126.882 38.248C127.533 38.536 128.013 38.9467 128.323 39.48C128.642 40.0133 128.802 40.6427 128.802 41.368C128.802 42.0933 128.642 42.7227 128.323 43.256C128.013 43.7893 127.533 44.2053 126.882 44.504C126.232 44.792 125.405 44.936 124.403 44.936H122.242V49H120.322ZM122.242 43.272H124.242C125.256 43.272 125.949 43.1173 126.323 42.808C126.696 42.488 126.882 42.008 126.882 41.368C126.882 40.7387 126.696 40.264 126.323 39.944C125.949 39.624 125.256 39.464 124.242 39.464H122.242V43.272ZM130.245 49V37.8H132.165V47.336H137.605V49H130.245ZM138.89 49V37.8H140.81V49H138.89ZM143.215 49V37.8H145.071L150.575 45.8V37.8H152.495V49H150.639L145.135 41V49H143.215ZM153.531 49L157.771 37.8H159.691L163.931 49H161.883L160.939 46.472H156.395L155.451 49H153.531ZM157.019 44.808H160.315L158.683 40.2L157.019 44.808ZM164.966 49V37.8H169.206C170.145 37.8 170.924 37.9493 171.542 38.248C172.172 38.5467 172.646 38.9573 172.966 39.48C173.286 40.0027 173.446 40.6053 173.446 41.288C173.446 42.056 173.238 42.7227 172.822 43.288C172.406 43.8427 171.782 44.2427 170.95 44.488L173.766 49H171.654L169.174 44.712H166.886V49H164.966ZM166.886 43.112H168.886C169.868 43.112 170.55 42.952 170.934 42.632C171.329 42.312 171.526 41.864 171.526 41.288C171.526 40.712 171.329 40.264 170.934 39.944C170.55 39.624 169.868 39.464 168.886 39.464H166.886V43.112ZM177.991 49V44.68L173.671 37.8H175.943L178.983 42.76L181.799 37.8H183.911L179.911 44.68V49H177.991ZM188.234 49V37.8H191.834C192.964 37.8 193.93 38.0027 194.73 38.408C195.53 38.8027 196.138 39.4 196.554 40.2C196.98 40.9893 197.194 41.976 197.194 43.16V43.48C197.194 44.6747 196.975 45.6827 196.538 46.504C196.1 47.3253 195.466 47.9493 194.634 48.376C193.812 48.792 192.826 49 191.674 49H188.234ZM190.154 47.336H191.514C192.25 47.336 192.89 47.2133 193.434 46.968C193.988 46.712 194.415 46.3013 194.714 45.736C195.023 45.1707 195.178 44.4187 195.178 43.48V43.16C195.178 42.2853 195.023 41.576 194.714 41.032C194.404 40.488 193.983 40.0933 193.45 39.848C192.927 39.592 192.335 39.464 191.674 39.464H190.154V47.336ZM198.875 49V37.8H206.395V39.464H200.795V42.408H205.915V44.072H200.795V47.336H206.395V49H198.875ZM211.839 49.176C210.879 49.176 210.084 49.0373 209.455 48.76C208.825 48.4827 208.345 48.104 208.015 47.624C207.695 47.1333 207.503 46.5787 207.439 45.96H209.359C209.444 46.3973 209.663 46.76 210.015 47.048C210.367 47.336 210.975 47.48 211.839 47.48C212.735 47.48 213.369 47.336 213.743 47.048C214.127 46.7493 214.319 46.3867 214.319 45.96C214.319 45.608 214.212 45.32 213.999 45.096C213.785 44.872 213.455 44.68 213.007 44.52C212.569 44.3493 212.009 44.1947 211.327 44.056C210.559 43.8853 209.908 43.672 209.375 43.416C208.841 43.1493 208.436 42.7973 208.159 42.36C207.892 41.9227 207.759 41.3627 207.759 40.68C207.759 40.1147 207.913 39.6027 208.223 39.144C208.532 38.6853 208.985 38.3173 209.583 38.04C210.191 37.7627 210.943 37.624 211.839 37.624C212.713 37.624 213.439 37.7573 214.015 38.024C214.601 38.28 215.049 38.6373 215.359 39.096C215.679 39.5547 215.865 40.0827 215.919 40.68H213.999C213.913 40.2747 213.695 39.9493 213.343 39.704C213.001 39.448 212.5 39.32 211.839 39.32C211.071 39.32 210.516 39.4533 210.175 39.72C209.844 39.9867 209.679 40.3067 209.679 40.68C209.679 41.192 209.892 41.576 210.319 41.832C210.745 42.088 211.401 42.3067 212.287 42.488C212.948 42.6267 213.524 42.792 214.015 42.984C214.505 43.1653 214.916 43.3893 215.247 43.656C215.577 43.912 215.823 44.232 215.983 44.616C216.153 44.9893 216.239 45.4373 216.239 45.96C216.239 46.5787 216.073 47.1333 215.743 47.624C215.423 48.104 214.937 48.4827 214.287 48.76C213.636 49.0373 212.82 49.176 211.839 49.176ZM218.005 49V37.8H219.925V49H218.005ZM226.81 49.176C225.786 49.176 224.895 48.9627 224.138 48.536C223.381 48.1093 222.794 47.4747 222.378 46.632C221.973 45.7787 221.77 44.728 221.77 43.48V43.16C221.77 42.2747 221.887 41.4907 222.122 40.808C222.367 40.1253 222.709 39.5493 223.146 39.08C223.594 38.6 224.127 38.2373 224.746 37.992C225.365 37.7467 226.053 37.624 226.81 37.624C227.386 37.624 227.919 37.704 228.41 37.864C228.911 38.0133 229.354 38.2373 229.738 38.536C230.122 38.824 230.442 39.192 230.698 39.64C230.965 40.0773 231.162 40.584 231.29 41.16H229.21C229.061 40.6907 228.858 40.3227 228.602 40.056C228.346 39.7893 228.063 39.6027 227.754 39.496C227.445 39.3787 227.13 39.32 226.81 39.32C226.213 39.32 225.685 39.4587 225.226 39.736C224.767 40.0133 224.41 40.4347 224.154 41C223.909 41.5653 223.786 42.2853 223.786 43.16V43.48C223.786 44.1627 223.861 44.7547 224.01 45.256C224.159 45.7573 224.367 46.1733 224.634 46.504C224.911 46.8347 225.231 47.08 225.594 47.24C225.967 47.4 226.373 47.48 226.81 47.48C227.365 47.48 227.845 47.384 228.25 47.192C228.655 47 228.981 46.7013 229.226 46.296C229.471 45.8907 229.621 45.3787 229.674 44.76H227.13V43.16H231.53V43.8C231.53 44.696 231.418 45.48 231.194 46.152C230.981 46.824 230.671 47.384 230.266 47.832C229.861 48.28 229.365 48.616 228.778 48.84C228.202 49.064 227.546 49.176 226.81 49.176ZM233.128 49V37.8H234.984L240.488 45.8V37.8H242.408V49H240.552L235.048 41V49H233.128ZM244.644 49V37.8H252.164V39.464H246.564V42.408H251.684V44.072H246.564V47.336H252.164V49H244.644ZM253.848 49V37.8H258.088C259.026 37.8 259.805 37.9493 260.424 38.248C261.053 38.5467 261.528 38.9573 261.848 39.48C262.168 40.0027 262.328 40.6053 262.328 41.288C262.328 42.056 262.12 42.7227 261.704 43.288C261.288 43.8427 260.664 44.2427 259.832 44.488L262.648 49H260.536L258.056 44.712H255.768V49H253.848ZM255.768 43.112H257.768C258.749 43.112 259.432 42.952 259.816 42.632C260.21 42.312 260.408 41.864 260.408 41.288C260.408 40.712 260.21 40.264 259.816 39.944C259.432 39.624 258.749 39.464 257.768 39.464H255.768V43.112ZM273.601 37.8V52.2H270.401V50.824H271.969V39.176H270.401V37.8H273.601Z" fill="white"/>
<g clip-path="url(#clip0_2461_2850)">
<path d="M207.001 271.333C208.668 273.159 209.616 275.528 209.667 278C209.616 280.472 208.668 282.841 207.001 284.667M207.001 271.333C205.333 273.159 204.385 275.528 204.334 278C204.385 280.472 205.333 282.841 207.001 284.667M207.001 271.333C203.319 271.333 200.334 274.318 200.334 278C200.334 281.682 203.319 284.667 207.001 284.667M207.001 271.333C210.683 271.333 213.667 274.318 213.667 278C213.667 281.682 210.683 284.667 207.001 284.667M200.667 276H213.334M200.667 280H213.334" stroke="#FF9C2B" stroke-linecap="round" stroke-linejoin="round"/>
</g>
<path d="M220.134 283V273.2H223.536C224.525 273.2 225.37 273.377 226.07 273.732C226.77 274.087 227.302 274.614 227.666 275.314C228.039 276.005 228.226 276.863 228.226 277.89V278.17C228.226 279.215 228.035 280.097 227.652 280.816C227.269 281.535 226.714 282.081 225.986 282.454C225.267 282.818 224.404 283 223.396 283H220.134ZM222.22 281.264H223.256C223.769 281.264 224.236 281.166 224.656 280.97C225.076 280.774 225.412 280.452 225.664 280.004C225.925 279.547 226.056 278.935 226.056 278.17V277.89C226.056 277.162 225.939 276.583 225.706 276.154C225.473 275.715 225.151 275.403 224.74 275.216C224.339 275.029 223.891 274.936 223.396 274.936H222.22V281.264ZM233.139 283.168C232.467 283.168 231.847 283.033 231.277 282.762C230.717 282.482 230.269 282.062 229.933 281.502C229.597 280.933 229.429 280.219 229.429 279.36V279.08C229.429 278.259 229.588 277.577 229.905 277.036C230.232 276.495 230.666 276.089 231.207 275.818C231.749 275.547 232.346 275.412 232.999 275.412C234.166 275.412 235.053 275.72 235.659 276.336C236.266 276.952 236.569 277.843 236.569 279.01V279.794H231.319C231.338 280.233 231.431 280.592 231.599 280.872C231.777 281.143 232.001 281.343 232.271 281.474C232.542 281.595 232.831 281.656 233.139 281.656C233.615 281.656 233.975 281.586 234.217 281.446C234.46 281.306 234.633 281.101 234.735 280.83H236.429C236.28 281.605 235.911 282.188 235.323 282.58C234.735 282.972 234.007 283.168 233.139 283.168ZM233.069 276.924C232.78 276.924 232.5 276.971 232.229 277.064C231.959 277.157 231.744 277.325 231.585 277.568C231.427 277.801 231.338 278.114 231.319 278.506H234.777C234.768 278.086 234.684 277.764 234.525 277.54C234.376 277.307 234.175 277.148 233.923 277.064C233.671 276.971 233.387 276.924 233.069 276.924ZM240.911 283.168C240.304 283.168 239.795 283.107 239.385 282.986C238.974 282.855 238.633 282.683 238.363 282.468C238.101 282.244 237.905 281.992 237.775 281.712C237.653 281.432 237.579 281.138 237.551 280.83H239.399C239.445 281.073 239.59 281.273 239.833 281.432C240.075 281.581 240.435 281.656 240.911 281.656C241.452 281.656 241.839 281.581 242.073 281.432C242.306 281.283 242.423 281.091 242.423 280.858C242.423 280.69 242.371 280.555 242.269 280.452C242.166 280.34 241.984 280.247 241.723 280.172C241.461 280.088 241.093 280.004 240.617 279.92C240.206 279.864 239.828 279.789 239.483 279.696C239.137 279.593 238.834 279.453 238.573 279.276C238.321 279.099 238.12 278.879 237.971 278.618C237.831 278.347 237.761 278.021 237.761 277.638C237.761 277.227 237.882 276.854 238.125 276.518C238.377 276.182 238.736 275.916 239.203 275.72C239.679 275.515 240.248 275.412 240.911 275.412C241.629 275.412 242.203 275.524 242.633 275.748C243.062 275.972 243.384 276.261 243.599 276.616C243.813 276.971 243.944 277.349 243.991 277.75H242.143C242.068 277.479 241.923 277.274 241.709 277.134C241.494 276.994 241.228 276.924 240.911 276.924C240.444 276.924 240.108 276.999 239.903 277.148C239.707 277.288 239.609 277.465 239.609 277.68C239.609 277.904 239.716 278.077 239.931 278.198C240.155 278.319 240.607 278.427 241.289 278.52C241.709 278.576 242.096 278.66 242.451 278.772C242.815 278.875 243.132 279.015 243.403 279.192C243.673 279.369 243.883 279.593 244.033 279.864C244.191 280.125 244.271 280.447 244.271 280.83C244.271 281.287 244.145 281.693 243.893 282.048C243.65 282.393 243.277 282.669 242.773 282.874C242.278 283.07 241.657 283.168 240.911 283.168ZM245.738 283V275.58H247.572V283H245.738ZM246.648 274.866C246.321 274.866 246.051 274.763 245.836 274.558C245.631 274.353 245.528 274.087 245.528 273.76C245.528 273.433 245.631 273.167 245.836 272.962C246.051 272.757 246.317 272.654 246.634 272.654C246.97 272.654 247.241 272.757 247.446 272.962C247.661 273.167 247.768 273.433 247.768 273.76C247.768 274.087 247.661 274.353 247.446 274.558C247.241 274.763 246.975 274.866 246.648 274.866ZM249.399 283V275.58H251.079V276.672C251.266 276.336 251.555 276.042 251.947 275.79C252.339 275.538 252.876 275.412 253.557 275.412C254.462 275.412 255.134 275.655 255.573 276.14C256.021 276.625 256.245 277.325 256.245 278.24V283H254.397V278.66C254.397 278.109 254.28 277.694 254.047 277.414C253.823 277.125 253.436 276.98 252.885 276.98C252.493 276.98 252.176 277.059 251.933 277.218C251.69 277.377 251.513 277.582 251.401 277.834C251.289 278.086 251.233 278.361 251.233 278.66V283H249.399ZM259.191 283.168C258.986 283.168 258.79 283.112 258.603 283C258.417 282.897 258.267 282.753 258.155 282.566C258.053 282.379 258.001 282.183 258.001 281.978C258.001 281.633 258.118 281.348 258.351 281.124C258.585 280.9 258.865 280.788 259.191 280.788C259.518 280.788 259.798 280.9 260.031 281.124C260.265 281.348 260.381 281.633 260.381 281.978C260.381 282.183 260.325 282.379 260.213 282.566C260.111 282.753 259.971 282.897 259.793 283C259.616 283.112 259.415 283.168 259.191 283.168ZM261.649 285.968C261.547 285.968 261.43 285.963 261.299 285.954C261.169 285.954 261.052 285.945 260.949 285.926V284.358C261.024 284.377 261.108 284.386 261.201 284.386C261.285 284.395 261.365 284.4 261.439 284.4C261.673 284.4 261.855 284.358 261.985 284.274C262.116 284.199 262.209 284.045 262.265 283.812C262.321 283.588 262.349 283.271 262.349 282.86V275.58H264.183V283C264.183 283.784 264.109 284.391 263.959 284.82C263.81 285.249 263.553 285.548 263.189 285.716C262.825 285.884 262.312 285.968 261.649 285.968ZM263.259 274.866C262.933 274.866 262.662 274.763 262.447 274.558C262.242 274.353 262.139 274.087 262.139 273.76C262.139 273.433 262.242 273.167 262.447 272.962C262.662 272.757 262.928 272.654 263.245 272.654C263.581 272.654 263.852 272.757 264.057 272.962C264.272 273.167 264.379 273.433 264.379 273.76C264.379 274.087 264.272 274.353 264.057 274.558C263.852 274.763 263.586 274.866 263.259 274.866ZM266.15 283V275.58H267.984V283H266.15ZM267.06 274.866C266.734 274.866 266.463 274.763 266.248 274.558C266.043 274.353 265.94 274.087 265.94 273.76C265.94 273.433 266.043 273.167 266.248 272.962C266.463 272.757 266.729 272.654 267.046 272.654C267.382 272.654 267.653 272.757 267.858 272.962C268.073 273.167 268.18 273.433 268.18 273.76C268.18 274.087 268.073 274.353 267.858 274.558C267.653 274.763 267.387 274.866 267.06 274.866ZM273.017 285.968C272.233 285.968 271.608 285.87 271.141 285.674C270.674 285.487 270.329 285.226 270.105 284.89C269.89 284.554 269.764 284.157 269.727 283.7H271.603C271.659 283.896 271.785 284.078 271.981 284.246C272.177 284.423 272.522 284.512 273.017 284.512C273.642 284.512 274.109 284.363 274.417 284.064C274.725 283.765 274.879 283.317 274.879 282.72V281.824C274.646 282.188 274.333 282.482 273.941 282.706C273.549 282.921 273.101 283.028 272.597 283.028C271.953 283.028 271.393 282.888 270.917 282.608C270.45 282.328 270.086 281.913 269.825 281.362C269.573 280.802 269.447 280.111 269.447 279.29V279.01C269.447 278.235 269.573 277.582 269.825 277.05C270.086 276.518 270.455 276.112 270.931 275.832C271.407 275.552 271.962 275.412 272.597 275.412C273.213 275.412 273.722 275.538 274.123 275.79C274.524 276.042 274.818 276.336 275.005 276.672V275.58H276.713V282.58C276.713 283.681 276.41 284.521 275.803 285.1C275.196 285.679 274.268 285.968 273.017 285.968ZM273.031 281.46C273.404 281.46 273.726 281.395 273.997 281.264C274.277 281.124 274.492 280.909 274.641 280.62C274.8 280.331 274.879 279.981 274.879 279.57V278.73C274.879 278.338 274.8 278.016 274.641 277.764C274.482 277.512 274.258 277.321 273.969 277.19C273.689 277.05 273.376 276.98 273.031 276.98C272.527 276.98 272.116 277.153 271.799 277.498C271.482 277.834 271.323 278.338 271.323 279.01V279.29C271.323 280.009 271.486 280.55 271.813 280.914C272.14 281.278 272.546 281.46 273.031 281.46ZM281.63 285.968C280.846 285.968 280.221 285.87 279.754 285.674C279.288 285.487 278.942 285.226 278.718 284.89C278.504 284.554 278.378 284.157 278.34 283.7H280.216C280.272 283.896 280.398 284.078 280.594 284.246C280.79 284.423 281.136 284.512 281.63 284.512C282.256 284.512 282.722 284.363 283.03 284.064C283.338 283.765 283.492 283.317 283.492 282.72V281.824C283.259 282.188 282.946 282.482 282.554 282.706C282.162 282.921 281.714 283.028 281.21 283.028C280.566 283.028 280.006 282.888 279.53 282.608C279.064 282.328 278.7 281.913 278.438 281.362C278.186 280.802 278.06 280.111 278.06 279.29V279.01C278.06 278.235 278.186 277.582 278.438 277.05C278.7 276.518 279.068 276.112 279.544 275.832C280.02 275.552 280.576 275.412 281.21 275.412C281.826 275.412 282.335 275.538 282.736 275.79C283.138 276.042 283.432 276.336 283.618 276.672V275.58H285.326V282.58C285.326 283.681 285.023 284.521 284.416 285.1C283.81 285.679 282.881 285.968 281.63 285.968ZM281.644 281.46C282.018 281.46 282.34 281.395 282.61 281.264C282.89 281.124 283.105 280.909 283.254 280.62C283.413 280.331 283.492 279.981 283.492 279.57V278.73C283.492 278.338 283.413 278.016 283.254 277.764C283.096 277.512 282.872 277.321 282.582 277.19C282.302 277.05 281.99 276.98 281.644 276.98C281.14 276.98 280.73 277.153 280.412 277.498C280.095 277.834 279.936 278.338 279.936 279.01V279.29C279.936 280.009 280.1 280.55 280.426 280.914C280.753 281.278 281.159 281.46 281.644 281.46ZM289.25 283.168C288.718 283.168 288.265 283.07 287.892 282.874C287.518 282.669 287.234 282.389 287.038 282.034C286.842 281.679 286.744 281.278 286.744 280.83C286.744 280.083 286.963 279.523 287.402 279.15C287.85 278.777 288.517 278.59 289.404 278.59H291.616V278.24C291.616 277.755 291.504 277.414 291.28 277.218C291.065 277.022 290.72 276.924 290.244 276.924C289.824 276.924 289.52 276.999 289.334 277.148C289.147 277.288 289.04 277.465 289.012 277.68H287.164C287.192 277.251 287.327 276.868 287.57 276.532C287.822 276.187 288.176 275.916 288.634 275.72C289.1 275.515 289.66 275.412 290.314 275.412C290.948 275.412 291.499 275.505 291.966 275.692C292.442 275.879 292.81 276.182 293.072 276.602C293.333 277.013 293.464 277.568 293.464 278.268V281.11C293.464 281.502 293.468 281.847 293.478 282.146C293.496 282.435 293.524 282.72 293.562 283H291.84C291.802 282.795 291.779 282.641 291.77 282.538C291.77 282.426 291.77 282.263 291.77 282.048C291.574 282.347 291.266 282.608 290.846 282.832C290.426 283.056 289.894 283.168 289.25 283.168ZM289.824 281.74C290.122 281.74 290.407 281.689 290.678 281.586C290.958 281.474 291.182 281.306 291.35 281.082C291.527 280.849 291.616 280.555 291.616 280.2V279.85H289.754C289.399 279.85 289.119 279.934 288.914 280.102C288.718 280.261 288.62 280.48 288.62 280.76C288.62 281.059 288.722 281.297 288.928 281.474C289.133 281.651 289.432 281.74 289.824 281.74Z" fill="#161411"/>
<defs>
<clipPath id="clip0_2461_2850">
<rect width="16" height="16" fill="white" transform="translate(199 270)"/>
</clipPath>
</defs>
</svg>
