<svg width="494" height="310" viewBox="0 0 494 310" fill="none" xmlns="http://www.w3.org/2000/svg">
<rect width="494" height="310" rx="18" fill="white"/>
<path d="M0 134C0 122.954 8.9543 114 20 114H474C485.046 114 494 122.954 494 134V310H0V134Z" fill="#F5F5F5"/>
<circle cx="448" cy="43" r="23" fill="#FF9C2B"/>
<path d="M191.752 174.504C190.048 174.504 188.428 174.264 186.892 173.784C185.38 173.28 184.036 172.512 182.86 171.48C181.708 170.448 180.808 169.116 180.16 167.484C179.512 165.828 179.188 163.86 179.188 161.58V160.86C179.188 158.676 179.512 156.792 180.16 155.208C180.808 153.624 181.708 152.328 182.86 151.32C184.036 150.288 185.38 149.532 186.892 149.052C188.428 148.548 190.048 148.296 191.752 148.296C193.48 148.296 195.1 148.548 196.612 149.052C198.148 149.532 199.492 150.288 200.644 151.32C201.796 152.328 202.708 153.624 203.38 155.208C204.052 156.792 204.388 158.676 204.388 160.86V161.58C204.388 163.836 204.052 165.792 203.38 167.448C202.708 169.08 201.796 170.424 200.644 171.48C199.492 172.512 198.148 173.28 196.612 173.784C195.1 174.264 193.48 174.504 191.752 174.504ZM191.752 167.952C192.568 167.952 193.3 167.76 193.948 167.376C194.62 166.968 195.148 166.308 195.532 165.396C195.94 164.46 196.144 163.188 196.144 161.58V160.86C196.144 159.348 195.94 158.16 195.532 157.296C195.148 156.408 194.62 155.784 193.948 155.424C193.3 155.04 192.568 154.848 191.752 154.848C190.936 154.848 190.204 155.04 189.556 155.424C188.908 155.784 188.38 156.408 187.972 157.296C187.564 158.16 187.36 159.348 187.36 160.86V161.58C187.36 163.188 187.564 164.46 187.972 165.396C188.38 166.308 188.908 166.968 189.556 167.376C190.204 167.76 190.936 167.952 191.752 167.952ZM214.275 174.252C212.619 174.252 211.263 174.048 210.207 173.64C209.175 173.232 208.419 172.5 207.939 171.444C207.459 170.364 207.219 168.816 207.219 166.8V148.8H213.987V165.576C213.987 166.752 214.131 167.58 214.419 168.06C214.707 168.516 215.355 168.744 216.363 168.744C216.579 168.744 216.747 168.744 216.867 168.744C217.011 168.744 217.167 168.732 217.335 168.708V174.108C217.047 174.156 216.711 174.18 216.327 174.18C215.943 174.204 215.559 174.216 215.175 174.216C214.815 174.24 214.515 174.252 214.275 174.252ZM228.564 174.504C226.692 174.504 224.988 174.156 223.452 173.46C221.916 172.74 220.704 171.648 219.816 170.184C218.928 168.72 218.484 166.872 218.484 164.64V163.92C218.484 161.832 218.928 160.092 219.816 158.7C220.704 157.284 221.916 156.216 223.452 155.496C224.988 154.776 226.692 154.416 228.564 154.416C230.436 154.416 232.128 154.776 233.64 155.496C235.176 156.216 236.388 157.284 237.276 158.7C238.164 160.092 238.608 161.832 238.608 163.92V164.64C238.608 166.8 238.164 168.624 237.276 170.112C236.388 171.576 235.176 172.68 233.64 173.424C232.128 174.144 230.436 174.504 228.564 174.504ZM228.564 168.996C229.212 168.996 229.776 168.84 230.256 168.528C230.736 168.192 231.096 167.7 231.336 167.052C231.6 166.404 231.732 165.6 231.732 164.64V163.92C231.732 163.08 231.6 162.36 231.336 161.76C231.096 161.16 230.736 160.704 230.256 160.392C229.776 160.08 229.212 159.924 228.564 159.924C227.868 159.924 227.28 160.08 226.8 160.392C226.344 160.704 225.984 161.16 225.72 161.76C225.48 162.36 225.36 163.08 225.36 163.92V164.64C225.36 165.6 225.48 166.404 225.72 167.052C225.984 167.7 226.344 168.192 226.8 168.528C227.28 168.84 227.868 168.996 228.564 168.996ZM248.201 174.252C246.545 174.252 245.189 174.048 244.133 173.64C243.101 173.232 242.345 172.5 241.865 171.444C241.385 170.364 241.145 168.816 241.145 166.8V148.8H247.913V165.576C247.913 166.752 248.057 167.58 248.345 168.06C248.633 168.516 249.281 168.744 250.289 168.744C250.505 168.744 250.673 168.744 250.793 168.744C250.937 168.744 251.093 168.732 251.261 168.708V174.108C250.973 174.156 250.637 174.18 250.253 174.18C249.869 174.204 249.485 174.216 249.101 174.216C248.741 174.24 248.441 174.252 248.201 174.252ZM259.206 174.504C257.838 174.504 256.674 174.24 255.714 173.712C254.754 173.184 254.022 172.452 253.518 171.516C253.014 170.58 252.762 169.548 252.762 168.42C252.762 166.524 253.338 165.048 254.49 163.992C255.666 162.936 257.478 162.408 259.926 162.408H264.714V161.76C264.714 160.872 264.51 160.26 264.102 159.924C263.694 159.564 263.142 159.384 262.446 159.384C261.774 159.384 261.27 159.492 260.934 159.708C260.622 159.924 260.442 160.248 260.394 160.68H253.842C253.914 159.48 254.274 158.412 254.922 157.476C255.594 156.516 256.566 155.772 257.838 155.244C259.134 154.692 260.73 154.416 262.626 154.416C264.378 154.416 265.914 154.68 267.234 155.208C268.578 155.712 269.622 156.54 270.366 157.692C271.11 158.82 271.482 160.356 271.482 162.3V169.14C271.482 170.148 271.506 171.036 271.554 171.804C271.602 172.548 271.686 173.28 271.806 174H265.362C265.29 173.664 265.23 173.34 265.182 173.028C265.134 172.716 265.11 172.308 265.11 171.804C264.606 172.548 263.91 173.184 263.022 173.712C262.134 174.24 260.862 174.504 259.206 174.504ZM261.654 169.716C262.278 169.716 262.818 169.608 263.274 169.392C263.73 169.152 264.078 168.816 264.318 168.384C264.582 167.928 264.714 167.4 264.714 166.8V166.224H261.546C260.922 166.224 260.442 166.38 260.106 166.692C259.794 167.004 259.638 167.4 259.638 167.88C259.638 168.456 259.794 168.912 260.106 169.248C260.442 169.56 260.958 169.716 261.654 169.716ZM281.492 174.504C279.98 174.504 278.636 174.156 277.46 173.46C276.284 172.74 275.348 171.66 274.652 170.22C273.98 168.756 273.644 166.92 273.644 164.712V164.028C273.644 161.916 273.956 160.152 274.58 158.736C275.228 157.32 276.14 156.252 277.316 155.532C278.516 154.788 279.92 154.416 281.528 154.416C282.608 154.416 283.616 154.644 284.552 155.1C285.488 155.556 286.256 156.228 286.856 157.116V148.8H293.624V174H287.36V171.624C286.904 172.416 286.208 173.1 285.272 173.676C284.336 174.228 283.076 174.504 281.492 174.504ZM283.58 168.996C284.18 168.996 284.72 168.864 285.2 168.6C285.704 168.312 286.1 167.88 286.388 167.304C286.7 166.704 286.856 165.972 286.856 165.108V163.632C286.856 162.792 286.7 162.096 286.388 161.544C286.1 160.992 285.704 160.584 285.2 160.32C284.72 160.056 284.18 159.924 283.58 159.924C282.716 159.924 281.996 160.248 281.42 160.896C280.844 161.544 280.556 162.588 280.556 164.028V164.748C280.556 166.212 280.856 167.292 281.456 167.988C282.08 168.66 282.788 168.996 283.58 168.996ZM306.229 174.504C304.237 174.504 302.461 174.144 300.901 173.424C299.365 172.704 298.153 171.624 297.265 170.184C296.401 168.744 295.969 166.932 295.969 164.748V164.028C295.969 161.892 296.389 160.116 297.229 158.7C298.069 157.284 299.233 156.216 300.721 155.496C302.233 154.776 303.949 154.416 305.869 154.416C309.181 154.416 311.653 155.244 313.285 156.9C314.917 158.532 315.733 160.932 315.733 164.1V166.188H302.809C302.857 166.932 303.025 167.556 303.313 168.06C303.601 168.54 303.985 168.9 304.465 169.14C304.969 169.356 305.557 169.464 306.229 169.464C307.069 169.464 307.717 169.332 308.173 169.068C308.653 168.78 308.977 168.42 309.145 167.988H315.481C315.097 170.196 314.113 171.84 312.529 172.92C310.969 173.976 308.869 174.504 306.229 174.504ZM306.049 159.456C305.425 159.456 304.873 159.564 304.393 159.78C303.937 159.996 303.577 160.308 303.313 160.716C303.049 161.124 302.893 161.64 302.845 162.264H309.109C309.085 161.616 308.941 161.088 308.677 160.68C308.413 160.248 308.053 159.936 307.597 159.744C307.165 159.552 306.649 159.456 306.049 159.456Z" fill="#FF9C2B"/>
<path d="M26.92 52.2V37.8H30.12V39.176H28.552V50.824H30.12V52.2H26.92ZM35.2381 49V37.8H39.3181C40.3208 37.8 41.1475 37.9493 41.7981 38.248C42.4488 38.536 42.9288 38.9467 43.2381 39.48C43.5581 40.0133 43.7181 40.6427 43.7181 41.368C43.7181 42.0933 43.5581 42.7227 43.2381 43.256C42.9288 43.7893 42.4488 44.2053 41.7981 44.504C41.1475 44.792 40.3208 44.936 39.3181 44.936H37.1581V49H35.2381ZM37.1581 43.272H39.1581C40.1715 43.272 40.8648 43.1173 41.2381 42.808C41.6115 42.488 41.7981 42.008 41.7981 41.368C41.7981 40.7387 41.6115 40.264 41.2381 39.944C40.8648 39.624 40.1715 39.464 39.1581 39.464H37.1581V43.272ZM45.1606 49V37.8H49.4006C50.3393 37.8 51.118 37.9493 51.7366 38.248C52.366 38.5467 52.8406 38.9573 53.1606 39.48C53.4806 40.0027 53.6406 40.6053 53.6406 41.288C53.6406 42.056 53.4326 42.7227 53.0166 43.288C52.6006 43.8427 51.9766 44.2427 51.1446 44.488L53.9606 49H51.8486L49.3686 44.712H47.0806V49H45.1606ZM47.0806 43.112H49.0806C50.062 43.112 50.7446 42.952 51.1286 42.632C51.5233 42.312 51.7206 41.864 51.7206 41.288C51.7206 40.712 51.5233 40.264 51.1286 39.944C50.7446 39.624 50.062 39.464 49.0806 39.464H47.0806V43.112ZM59.9556 49.176C59.273 49.176 58.6223 49.0693 58.0036 48.856C57.3956 48.6427 56.8516 48.312 56.3716 47.864C55.8916 47.4053 55.513 46.8187 55.2356 46.104C54.969 45.3787 54.8356 44.504 54.8356 43.48V43.16C54.8356 42.1787 54.969 41.3413 55.2356 40.648C55.513 39.944 55.8916 39.368 56.3716 38.92C56.8516 38.472 57.3956 38.1467 58.0036 37.944C58.6223 37.7307 59.273 37.624 59.9556 37.624C60.6383 37.624 61.2836 37.7307 61.8916 37.944C62.5103 38.1467 63.0596 38.472 63.5396 38.92C64.0196 39.368 64.393 39.944 64.6596 40.648C64.937 41.3413 65.0756 42.1787 65.0756 43.16V43.48C65.0756 44.504 64.937 45.3787 64.6596 46.104C64.393 46.8187 64.0196 47.4053 63.5396 47.864C63.0596 48.312 62.5103 48.6427 61.8916 48.856C61.2836 49.0693 60.6383 49.176 59.9556 49.176ZM59.9556 47.48C60.489 47.48 60.9903 47.352 61.4596 47.096C61.929 46.84 62.313 46.424 62.6116 45.848C62.9103 45.2613 63.0596 44.472 63.0596 43.48V43.16C63.0596 42.2213 62.9103 41.4747 62.6116 40.92C62.313 40.3547 61.929 39.9493 61.4596 39.704C60.9903 39.448 60.489 39.32 59.9556 39.32C59.4223 39.32 58.9156 39.448 58.4356 39.704C57.9663 39.9493 57.5823 40.3547 57.2836 40.92C56.9956 41.4747 56.8516 42.2213 56.8516 43.16V43.48C56.8516 44.472 56.9956 45.2613 57.2836 45.848C57.5823 46.424 57.9663 46.84 58.4356 47.096C58.9156 47.352 59.4223 47.48 59.9556 47.48ZM66.7556 49V37.8H70.3556C71.4863 37.8 72.4516 38.0027 73.2516 38.408C74.0516 38.8027 74.6596 39.4 75.0756 40.2C75.5023 40.9893 75.7156 41.976 75.7156 43.16V43.48C75.7156 44.6747 75.497 45.6827 75.0596 46.504C74.6223 47.3253 73.9876 47.9493 73.1556 48.376C72.3343 48.792 71.3476 49 70.1956 49H66.7556ZM68.6756 47.336H70.0356C70.7716 47.336 71.4116 47.2133 71.9556 46.968C72.5103 46.712 72.937 46.3013 73.2356 45.736C73.545 45.1707 73.6996 44.4187 73.6996 43.48V43.16C73.6996 42.2853 73.545 41.576 73.2356 41.032C72.9263 40.488 72.505 40.0933 71.9716 39.848C71.449 39.592 70.857 39.464 70.1956 39.464H68.6756V47.336ZM81.7969 49.176C80.8689 49.176 80.0635 49.0053 79.3809 48.664C78.6982 48.3227 78.1702 47.8107 77.7969 47.128C77.4235 46.4347 77.2369 45.5653 77.2369 44.52V37.8H79.1569V44.408C79.1569 45.464 79.3809 46.2427 79.8289 46.744C80.2769 47.2347 80.9329 47.48 81.7969 47.48C82.6715 47.48 83.3275 47.2347 83.7649 46.744C84.2129 46.2427 84.4369 45.4693 84.4369 44.424V37.8H86.3569V44.52C86.3569 45.5653 86.1702 46.4347 85.7969 47.128C85.4235 47.8107 84.8955 48.3227 84.2129 48.664C83.5302 49.0053 82.7249 49.176 81.7969 49.176ZM92.7644 49.176C91.847 49.176 91.0204 48.984 90.2844 48.6C89.5484 48.2053 88.9617 47.592 88.5244 46.76C88.0977 45.9173 87.8844 44.824 87.8844 43.48V43.16C87.8844 42.1893 88.0124 41.3573 88.2684 40.664C88.5244 39.96 88.871 39.384 89.3084 38.936C89.7564 38.488 90.2737 38.1573 90.8604 37.944C91.4577 37.7307 92.0924 37.624 92.7644 37.624C93.383 37.624 93.959 37.704 94.4924 37.864C95.0257 38.0133 95.495 38.2427 95.9004 38.552C96.3057 38.8613 96.631 39.2453 96.8764 39.704C97.1217 40.1627 97.271 40.7013 97.3244 41.32H95.3084C95.1697 40.6267 94.871 40.12 94.4124 39.8C93.9644 39.48 93.415 39.32 92.7644 39.32C92.295 39.32 91.8417 39.4427 91.4044 39.688C90.967 39.9227 90.6044 40.3173 90.3164 40.872C90.039 41.4267 89.9004 42.1893 89.9004 43.16V43.48C89.9004 44.248 89.9857 44.8933 90.1564 45.416C90.327 45.928 90.551 46.3333 90.8284 46.632C91.1164 46.9307 91.4257 47.1493 91.7564 47.288C92.0977 47.416 92.4337 47.48 92.7644 47.48C93.5324 47.48 94.1244 47.304 94.5404 46.952C94.967 46.5893 95.223 46.0987 95.3084 45.48H97.3244C97.2604 46.1413 97.1004 46.7067 96.8444 47.176C96.599 47.6453 96.2684 48.0293 95.8524 48.328C95.447 48.616 94.983 48.8293 94.4604 48.968C93.9377 49.1067 93.3724 49.176 92.7644 49.176ZM101.194 49V39.464H97.4344V37.8H106.874V39.464H103.114V49H101.194ZM111.352 49V37.8H114.952C116.083 37.8 117.048 38.0027 117.848 38.408C118.648 38.8027 119.256 39.4 119.672 40.2C120.099 40.9893 120.312 41.976 120.312 43.16V43.48C120.312 44.6747 120.094 45.6827 119.656 46.504C119.219 47.3253 118.584 47.9493 117.752 48.376C116.931 48.792 115.944 49 114.792 49H111.352ZM113.272 47.336H114.632C115.368 47.336 116.008 47.2133 116.552 46.968C117.107 46.712 117.534 46.3013 117.832 45.736C118.142 45.1707 118.296 44.4187 118.296 43.48V43.16C118.296 42.2853 118.142 41.576 117.832 41.032C117.523 40.488 117.102 40.0933 116.568 39.848C116.046 39.592 115.454 39.464 114.792 39.464H113.272V47.336ZM121.994 49V37.8H129.514V39.464H123.914V42.408H129.034V44.072H123.914V47.336H129.514V49H121.994ZM134.957 49.176C133.997 49.176 133.203 49.0373 132.573 48.76C131.944 48.4827 131.464 48.104 131.133 47.624C130.813 47.1333 130.621 46.5787 130.557 45.96H132.477C132.563 46.3973 132.781 46.76 133.133 47.048C133.485 47.336 134.093 47.48 134.957 47.48C135.853 47.48 136.488 47.336 136.862 47.048C137.246 46.7493 137.438 46.3867 137.438 45.96C137.438 45.608 137.331 45.32 137.117 45.096C136.904 44.872 136.574 44.68 136.126 44.52C135.688 44.3493 135.128 44.1947 134.445 44.056C133.677 43.8853 133.027 43.672 132.493 43.416C131.96 43.1493 131.555 42.7973 131.277 42.36C131.011 41.9227 130.877 41.3627 130.877 40.68C130.877 40.1147 131.032 39.6027 131.341 39.144C131.651 38.6853 132.104 38.3173 132.701 38.04C133.309 37.7627 134.061 37.624 134.957 37.624C135.832 37.624 136.557 37.7573 137.134 38.024C137.72 38.28 138.168 38.6373 138.477 39.096C138.798 39.5547 138.984 40.0827 139.038 40.68H137.117C137.032 40.2747 136.814 39.9493 136.462 39.704C136.12 39.448 135.619 39.32 134.957 39.32C134.19 39.32 133.635 39.4533 133.293 39.72C132.963 39.9867 132.797 40.3067 132.797 40.68C132.797 41.192 133.011 41.576 133.437 41.832C133.864 42.088 134.52 42.3067 135.405 42.488C136.067 42.6267 136.643 42.792 137.134 42.984C137.624 43.1653 138.035 43.3893 138.366 43.656C138.696 43.912 138.942 44.232 139.102 44.616C139.272 44.9893 139.358 45.4373 139.358 45.96C139.358 46.5787 139.192 47.1333 138.861 47.624C138.542 48.104 138.056 48.4827 137.405 48.76C136.755 49.0373 135.939 49.176 134.957 49.176ZM141.124 49V37.8H143.044V49H141.124ZM149.929 49.176C148.905 49.176 148.014 48.9627 147.257 48.536C146.499 48.1093 145.913 47.4747 145.497 46.632C145.091 45.7787 144.889 44.728 144.889 43.48V43.16C144.889 42.2747 145.006 41.4907 145.241 40.808C145.486 40.1253 145.827 39.5493 146.265 39.08C146.713 38.6 147.246 38.2373 147.865 37.992C148.483 37.7467 149.171 37.624 149.929 37.624C150.505 37.624 151.038 37.704 151.529 37.864C152.03 38.0133 152.473 38.2373 152.857 38.536C153.241 38.824 153.561 39.192 153.817 39.64C154.083 40.0773 154.281 40.584 154.409 41.16H152.329C152.179 40.6907 151.977 40.3227 151.721 40.056C151.465 39.7893 151.182 39.6027 150.873 39.496C150.563 39.3787 150.249 39.32 149.929 39.32C149.331 39.32 148.803 39.4587 148.345 39.736C147.886 40.0133 147.529 40.4347 147.273 41C147.027 41.5653 146.905 42.2853 146.905 43.16V43.48C146.905 44.1627 146.979 44.7547 147.129 45.256C147.278 45.7573 147.486 46.1733 147.753 46.504C148.03 46.8347 148.35 47.08 148.713 47.24C149.086 47.4 149.491 47.48 149.929 47.48C150.483 47.48 150.963 47.384 151.369 47.192C151.774 47 152.099 46.7013 152.345 46.296C152.59 45.8907 152.739 45.3787 152.793 44.76H150.249V43.16H154.649V43.8C154.649 44.696 154.537 45.48 154.313 46.152C154.099 46.824 153.79 47.384 153.385 47.832C152.979 48.28 152.483 48.616 151.897 48.84C151.321 49.064 150.665 49.176 149.929 49.176ZM156.246 49V37.8H158.102L163.606 45.8V37.8H165.526V49H163.67L158.166 41V49H156.246ZM167.762 49V37.8H175.282V39.464H169.682V42.408H174.802V44.072H169.682V47.336H175.282V49H167.762ZM176.966 49V37.8H181.206C182.145 37.8 182.924 37.9493 183.542 38.248C184.172 38.5467 184.646 38.9573 184.966 39.48C185.286 40.0027 185.446 40.6053 185.446 41.288C185.446 42.056 185.238 42.7227 184.822 43.288C184.406 43.8427 183.782 44.2427 182.95 44.488L185.766 49H183.654L181.174 44.712H178.886V49H176.966ZM178.886 43.112H180.886C181.868 43.112 182.55 42.952 182.934 42.632C183.329 42.312 183.526 41.864 183.526 41.288C183.526 40.712 183.329 40.264 182.934 39.944C182.55 39.624 181.868 39.464 180.886 39.464H178.886V43.112ZM193.359 37.8V52.2H190.159V50.824H191.727V39.176H190.159V37.8H193.359Z" fill="#161411"/>
<path d="M180.501 271.333C182.168 273.159 183.116 275.528 183.167 278C183.116 280.472 182.168 282.841 180.501 284.667M180.501 271.333C178.833 273.159 177.885 275.528 177.834 278C177.885 280.472 178.833 282.841 180.501 284.667M180.501 271.333C176.819 271.333 173.834 274.318 173.834 278C173.834 281.682 176.819 284.667 180.501 284.667M180.501 271.333C184.183 271.333 187.167 274.318 187.167 278C187.167 281.682 184.183 284.667 180.501 284.667M174.167 276H186.834M174.167 280H186.834" stroke="#FF9C2B" stroke-linecap="round" stroke-linejoin="round"/>
<path d="M197.82 283.168C197.204 283.168 196.621 283.075 196.07 282.888C195.519 282.701 195.025 282.412 194.586 282.02C194.157 281.619 193.816 281.101 193.564 280.466C193.321 279.831 193.2 279.066 193.2 278.17V277.89C193.2 277.031 193.321 276.299 193.564 275.692C193.816 275.076 194.157 274.572 194.586 274.18C195.025 273.788 195.519 273.499 196.07 273.312C196.621 273.125 197.204 273.032 197.82 273.032C198.436 273.032 199.019 273.125 199.57 273.312C200.121 273.499 200.611 273.788 201.04 274.18C201.479 274.572 201.819 275.076 202.062 275.692C202.314 276.299 202.44 277.031 202.44 277.89V278.17C202.44 279.066 202.314 279.831 202.062 280.466C201.819 281.101 201.479 281.619 201.04 282.02C200.611 282.412 200.121 282.701 199.57 282.888C199.019 283.075 198.436 283.168 197.82 283.168ZM197.82 281.404C198.249 281.404 198.646 281.306 199.01 281.11C199.383 280.905 199.682 280.569 199.906 280.102C200.139 279.626 200.256 278.982 200.256 278.17V277.89C200.256 277.125 200.139 276.518 199.906 276.07C199.682 275.613 199.383 275.286 199.01 275.09C198.646 274.894 198.249 274.796 197.82 274.796C197.4 274.796 197.003 274.894 196.63 275.09C196.257 275.286 195.953 275.613 195.72 276.07C195.496 276.518 195.384 277.125 195.384 277.89V278.17C195.384 278.982 195.496 279.626 195.72 280.102C195.953 280.569 196.257 280.905 196.63 281.11C197.003 281.306 197.4 281.404 197.82 281.404ZM206.483 283.084C205.914 283.084 205.447 283.009 205.083 282.86C204.728 282.701 204.467 282.44 204.299 282.076C204.131 281.703 204.047 281.185 204.047 280.522V273.2H205.881V280.298C205.881 280.774 205.946 281.096 206.077 281.264C206.217 281.432 206.488 281.516 206.889 281.516C206.992 281.516 207.08 281.516 207.155 281.516C207.23 281.507 207.304 281.497 207.379 281.488V283.028C207.332 283.047 207.253 283.061 207.141 283.07C207.029 283.079 206.912 283.084 206.791 283.084C206.67 283.084 206.567 283.084 206.483 283.084ZM211.807 283.168C211.135 283.168 210.515 283.033 209.945 282.762C209.385 282.482 208.937 282.057 208.601 281.488C208.265 280.919 208.097 280.209 208.097 279.36V279.08C208.097 278.277 208.265 277.605 208.601 277.064C208.937 276.513 209.385 276.103 209.945 275.832C210.515 275.552 211.135 275.412 211.807 275.412C212.489 275.412 213.109 275.552 213.669 275.832C214.229 276.103 214.677 276.513 215.013 277.064C215.349 277.605 215.517 278.277 215.517 279.08V279.36C215.517 280.191 215.349 280.891 215.013 281.46C214.677 282.029 214.229 282.459 213.669 282.748C213.109 283.028 212.489 283.168 211.807 283.168ZM211.807 281.6C212.162 281.6 212.475 281.521 212.745 281.362C213.025 281.194 213.245 280.942 213.403 280.606C213.562 280.27 213.641 279.855 213.641 279.36V279.08C213.641 278.623 213.562 278.24 213.403 277.932C213.245 277.624 213.025 277.391 212.745 277.232C212.475 277.064 212.162 276.98 211.807 276.98C211.453 276.98 211.135 277.064 210.855 277.232C210.585 277.391 210.37 277.624 210.211 277.932C210.053 278.24 209.973 278.623 209.973 279.08V279.36C209.973 279.864 210.053 280.284 210.211 280.62C210.37 280.947 210.585 281.194 210.855 281.362C211.135 281.521 211.453 281.6 211.807 281.6ZM219.362 283.084C218.793 283.084 218.326 283.009 217.962 282.86C217.607 282.701 217.346 282.44 217.178 282.076C217.01 281.703 216.926 281.185 216.926 280.522V273.2H218.76V280.298C218.76 280.774 218.825 281.096 218.956 281.264C219.096 281.432 219.367 281.516 219.768 281.516C219.871 281.516 219.959 281.516 220.034 281.516C220.109 281.507 220.183 281.497 220.258 281.488V283.028C220.211 283.047 220.132 283.061 220.02 283.07C219.908 283.079 219.791 283.084 219.67 283.084C219.549 283.084 219.446 283.084 219.362 283.084ZM223.689 283.168C223.157 283.168 222.704 283.07 222.331 282.874C221.958 282.669 221.673 282.389 221.477 282.034C221.281 281.679 221.183 281.278 221.183 280.83C221.183 280.083 221.402 279.523 221.841 279.15C222.289 278.777 222.956 278.59 223.843 278.59H226.055V278.24C226.055 277.755 225.943 277.414 225.719 277.218C225.504 277.022 225.159 276.924 224.683 276.924C224.263 276.924 223.96 276.999 223.773 277.148C223.586 277.288 223.479 277.465 223.451 277.68H221.603C221.631 277.251 221.766 276.868 222.009 276.532C222.261 276.187 222.616 275.916 223.073 275.72C223.54 275.515 224.1 275.412 224.753 275.412C225.388 275.412 225.938 275.505 226.405 275.692C226.881 275.879 227.25 276.182 227.511 276.602C227.772 277.013 227.903 277.568 227.903 278.268V281.11C227.903 281.502 227.908 281.847 227.917 282.146C227.936 282.435 227.964 282.72 228.001 283H226.279C226.242 282.795 226.218 282.641 226.209 282.538C226.209 282.426 226.209 282.263 226.209 282.048C226.013 282.347 225.705 282.608 225.285 282.832C224.865 283.056 224.333 283.168 223.689 283.168ZM224.263 281.74C224.562 281.74 224.846 281.689 225.117 281.586C225.397 281.474 225.621 281.306 225.789 281.082C225.966 280.849 226.055 280.555 226.055 280.2V279.85H224.193C223.838 279.85 223.558 279.934 223.353 280.102C223.157 280.261 223.059 280.48 223.059 280.76C223.059 281.059 223.162 281.297 223.367 281.474C223.572 281.651 223.871 281.74 224.263 281.74ZM232.316 283.168C231.672 283.168 231.112 283.028 230.636 282.748C230.169 282.468 229.805 282.048 229.544 281.488C229.292 280.919 229.166 280.209 229.166 279.36V279.08C229.166 278.277 229.292 277.605 229.544 277.064C229.805 276.523 230.174 276.112 230.65 275.832C231.126 275.552 231.681 275.412 232.316 275.412C232.829 275.412 233.277 275.524 233.66 275.748C234.052 275.963 234.364 276.252 234.598 276.616V273.2H236.432V283H234.724V281.908C234.537 282.244 234.243 282.538 233.842 282.79C233.44 283.042 232.932 283.168 232.316 283.168ZM232.75 281.6C233.123 281.6 233.445 281.53 233.716 281.39C233.996 281.25 234.21 281.035 234.36 280.746C234.518 280.447 234.598 280.079 234.598 279.64V278.8C234.598 278.389 234.518 278.053 234.36 277.792C234.201 277.521 233.977 277.321 233.688 277.19C233.408 277.05 233.095 276.98 232.75 276.98C232.246 276.98 231.835 277.157 231.518 277.512C231.2 277.857 231.042 278.38 231.042 279.08V279.36C231.042 280.125 231.205 280.69 231.532 281.054C231.858 281.418 232.264 281.6 232.75 281.6ZM241.489 283.168C240.817 283.168 240.196 283.033 239.627 282.762C239.067 282.482 238.619 282.062 238.283 281.502C237.947 280.933 237.779 280.219 237.779 279.36V279.08C237.779 278.259 237.938 277.577 238.255 277.036C238.582 276.495 239.016 276.089 239.557 275.818C240.098 275.547 240.696 275.412 241.349 275.412C242.516 275.412 243.402 275.72 244.009 276.336C244.616 276.952 244.919 277.843 244.919 279.01V279.794H239.669C239.688 280.233 239.781 280.592 239.949 280.872C240.126 281.143 240.35 281.343 240.621 281.474C240.892 281.595 241.181 281.656 241.489 281.656C241.965 281.656 242.324 281.586 242.567 281.446C242.81 281.306 242.982 281.101 243.085 280.83H244.779C244.63 281.605 244.261 282.188 243.673 282.58C243.085 282.972 242.357 283.168 241.489 283.168ZM241.419 276.924C241.13 276.924 240.85 276.971 240.579 277.064C240.308 277.157 240.094 277.325 239.935 277.568C239.776 277.801 239.688 278.114 239.669 278.506H243.127C243.118 278.086 243.034 277.764 242.875 277.54C242.726 277.307 242.525 277.148 242.273 277.064C242.021 276.971 241.736 276.924 241.419 276.924ZM247.334 283.168C247.129 283.168 246.933 283.112 246.746 283C246.559 282.897 246.41 282.753 246.298 282.566C246.195 282.379 246.144 282.183 246.144 281.978C246.144 281.633 246.261 281.348 246.494 281.124C246.727 280.9 247.007 280.788 247.334 280.788C247.661 280.788 247.941 280.9 248.174 281.124C248.407 281.348 248.524 281.633 248.524 281.978C248.524 282.183 248.468 282.379 248.356 282.566C248.253 282.753 248.113 282.897 247.936 283C247.759 283.112 247.558 283.168 247.334 283.168ZM250.526 283V277.12H249.602V275.58H250.526V275.3C250.526 274.824 250.61 274.427 250.778 274.11C250.946 273.783 251.221 273.536 251.604 273.368C251.996 273.2 252.519 273.116 253.172 273.116C253.312 273.116 253.485 273.121 253.69 273.13C253.905 273.13 254.082 273.139 254.222 273.158V274.726C254.082 274.707 253.928 274.698 253.76 274.698C253.601 274.689 253.452 274.684 253.312 274.684C252.957 274.684 252.71 274.745 252.57 274.866C252.43 274.978 252.36 275.169 252.36 275.44V275.58H254.082V277.12H252.36V283H250.526ZM255.219 283V275.58H256.899V276.686C257.002 276.471 257.142 276.271 257.319 276.084C257.497 275.897 257.716 275.739 257.977 275.608C258.239 275.477 258.528 275.412 258.845 275.412C259.023 275.412 259.172 275.421 259.293 275.44C259.424 275.459 259.508 275.477 259.545 275.496V277.134C259.452 277.097 259.331 277.064 259.181 277.036C259.041 276.999 258.85 276.98 258.607 276.98C258.234 276.98 257.931 277.059 257.697 277.218C257.473 277.377 257.31 277.587 257.207 277.848C257.105 278.1 257.053 278.375 257.053 278.674V283H255.219ZM262.668 283.168C262.136 283.168 261.683 283.07 261.31 282.874C260.936 282.669 260.652 282.389 260.456 282.034C260.26 281.679 260.162 281.278 260.162 280.83C260.162 280.083 260.381 279.523 260.82 279.15C261.268 278.777 261.935 278.59 262.822 278.59H265.034V278.24C265.034 277.755 264.922 277.414 264.698 277.218C264.483 277.022 264.138 276.924 263.662 276.924C263.242 276.924 262.938 276.999 262.752 277.148C262.565 277.288 262.458 277.465 262.43 277.68H260.582C260.61 277.251 260.745 276.868 260.988 276.532C261.24 276.187 261.594 275.916 262.052 275.72C262.518 275.515 263.078 275.412 263.732 275.412C264.366 275.412 264.917 275.505 265.384 275.692C265.86 275.879 266.228 276.182 266.49 276.602C266.751 277.013 266.882 277.568 266.882 278.268V281.11C266.882 281.502 266.886 281.847 266.896 282.146C266.914 282.435 266.942 282.72 266.98 283H265.258C265.22 282.795 265.197 282.641 265.188 282.538C265.188 282.426 265.188 282.263 265.188 282.048C264.992 282.347 264.684 282.608 264.264 282.832C263.844 283.056 263.312 283.168 262.668 283.168ZM263.242 281.74C263.54 281.74 263.825 281.689 264.096 281.586C264.376 281.474 264.6 281.306 264.768 281.082C264.945 280.849 265.034 280.555 265.034 280.2V279.85H263.172C262.817 279.85 262.537 279.934 262.332 280.102C262.136 280.261 262.038 280.48 262.038 280.76C262.038 281.059 262.14 281.297 262.346 281.474C262.551 281.651 262.85 281.74 263.242 281.74ZM268.508 283V275.58H270.188V276.686C270.356 276.359 270.627 276.065 271 275.804C271.383 275.543 271.822 275.412 272.316 275.412C272.914 275.412 273.38 275.533 273.716 275.776C274.062 276.019 274.304 276.341 274.444 276.742C274.65 276.35 274.944 276.033 275.326 275.79C275.718 275.538 276.18 275.412 276.712 275.412C277.496 275.412 278.094 275.641 278.504 276.098C278.924 276.555 279.134 277.246 279.134 278.17V283H277.286V278.59C277.286 278.002 277.188 277.587 276.992 277.344C276.806 277.101 276.502 276.98 276.082 276.98C275.84 276.98 275.616 277.045 275.41 277.176C275.205 277.297 275.037 277.479 274.906 277.722C274.785 277.965 274.724 278.254 274.724 278.59V283H272.89V278.59C272.89 278.002 272.792 277.587 272.596 277.344C272.41 277.101 272.106 276.98 271.686 276.98C271.444 276.98 271.215 277.045 271 277.176C270.795 277.297 270.632 277.479 270.51 277.722C270.398 277.965 270.342 278.254 270.342 278.59V283H268.508ZM284.104 283.168C283.432 283.168 282.812 283.033 282.242 282.762C281.682 282.482 281.234 282.062 280.898 281.502C280.562 280.933 280.394 280.219 280.394 279.36V279.08C280.394 278.259 280.553 277.577 280.87 277.036C281.197 276.495 281.631 276.089 282.172 275.818C282.714 275.547 283.311 275.412 283.964 275.412C285.131 275.412 286.018 275.72 286.624 276.336C287.231 276.952 287.534 277.843 287.534 279.01V279.794H282.284C282.303 280.233 282.396 280.592 282.564 280.872C282.742 281.143 282.966 281.343 283.236 281.474C283.507 281.595 283.796 281.656 284.104 281.656C284.58 281.656 284.94 281.586 285.182 281.446C285.425 281.306 285.598 281.101 285.7 280.83H287.394C287.245 281.605 286.876 282.188 286.288 282.58C285.7 282.972 284.972 283.168 284.104 283.168ZM284.034 276.924C283.745 276.924 283.465 276.971 283.194 277.064C282.924 277.157 282.709 277.325 282.55 277.568C282.392 277.801 282.303 278.114 282.284 278.506H285.742C285.733 278.086 285.649 277.764 285.49 277.54C285.341 277.307 285.14 277.148 284.888 277.064C284.636 276.971 284.352 276.924 284.034 276.924ZM288.879 283V275.58H290.559V276.686C290.662 276.471 290.802 276.271 290.979 276.084C291.157 275.897 291.376 275.739 291.637 275.608C291.899 275.477 292.188 275.412 292.505 275.412C292.683 275.412 292.832 275.421 292.953 275.44C293.084 275.459 293.168 275.477 293.205 275.496V277.134C293.112 277.097 292.991 277.064 292.841 277.036C292.701 276.999 292.51 276.98 292.267 276.98C291.894 276.98 291.591 277.059 291.357 277.218C291.133 277.377 290.97 277.587 290.867 277.848C290.765 278.1 290.713 278.375 290.713 278.674V283H288.879ZM294.147 283.168C293.941 283.168 293.745 283.112 293.559 283C293.372 282.897 293.223 282.753 293.111 282.566C293.008 282.379 292.957 282.183 292.957 281.978C292.957 281.633 293.073 281.348 293.307 281.124C293.54 280.9 293.82 280.788 294.147 280.788C294.473 280.788 294.753 280.9 294.987 281.124C295.22 281.348 295.337 281.633 295.337 281.978C295.337 282.183 295.281 282.379 295.169 282.566C295.066 282.753 294.926 282.897 294.749 283C294.571 283.112 294.371 283.168 294.147 283.168ZM299.704 283.168C299.06 283.168 298.5 283.028 298.024 282.748C297.558 282.468 297.194 282.048 296.932 281.488C296.68 280.919 296.554 280.209 296.554 279.36V279.08C296.554 278.277 296.68 277.605 296.932 277.064C297.194 276.523 297.562 276.112 298.038 275.832C298.514 275.552 299.07 275.412 299.704 275.412C300.218 275.412 300.666 275.524 301.048 275.748C301.44 275.963 301.753 276.252 301.986 276.616V273.2H303.82V283H302.112V281.908C301.926 282.244 301.632 282.538 301.23 282.79C300.829 283.042 300.32 283.168 299.704 283.168ZM300.138 281.6C300.512 281.6 300.834 281.53 301.104 281.39C301.384 281.25 301.599 281.035 301.748 280.746C301.907 280.447 301.986 280.079 301.986 279.64V278.8C301.986 278.389 301.907 278.053 301.748 277.792C301.59 277.521 301.366 277.321 301.076 277.19C300.796 277.05 300.484 276.98 300.138 276.98C299.634 276.98 299.224 277.157 298.906 277.512C298.589 277.857 298.43 278.38 298.43 279.08V279.36C298.43 280.125 298.594 280.69 298.92 281.054C299.247 281.418 299.653 281.6 300.138 281.6ZM308.878 283.168C308.206 283.168 307.585 283.033 307.016 282.762C306.456 282.482 306.008 282.062 305.672 281.502C305.336 280.933 305.168 280.219 305.168 279.36V279.08C305.168 278.259 305.326 277.577 305.644 277.036C305.97 276.495 306.404 276.089 306.946 275.818C307.487 275.547 308.084 275.412 308.738 275.412C309.904 275.412 310.791 275.72 311.398 276.336C312.004 276.952 312.308 277.843 312.308 279.01V279.794H307.058C307.076 280.233 307.17 280.592 307.338 280.872C307.515 281.143 307.739 281.343 308.01 281.474C308.28 281.595 308.57 281.656 308.878 281.656C309.354 281.656 309.713 281.586 309.956 281.446C310.198 281.306 310.371 281.101 310.474 280.83H312.168C312.018 281.605 311.65 282.188 311.062 282.58C310.474 282.972 309.746 283.168 308.878 283.168ZM308.808 276.924C308.518 276.924 308.238 276.971 307.968 277.064C307.697 277.157 307.482 277.325 307.324 277.568C307.165 277.801 307.076 278.114 307.058 278.506H310.516C310.506 278.086 310.422 277.764 310.264 277.54C310.114 277.307 309.914 277.148 309.662 277.064C309.41 276.971 309.125 276.924 308.808 276.924ZM315.801 283L312.665 275.58H314.737L316.753 280.704L318.601 275.58H320.505L317.649 283H315.801Z" fill="#161411"/>
</svg>
